<svg version="1.1" id="Layer_1" xmlns="http://www.w3.org/2000/svg" xmlns:xlink="http://www.w3.org/1999/xlink" x="0px" y="0px"
	 width="100%" viewBox="0 0 1270 1349" enable-background="new 0 0 1270 1349" xml:space="preserve">
<path fill="#FFFFFF" opacity="1.000000" stroke="none" 
	d="
M1271.000000,447.000000 
	C1271.000000,748.333313 1271.000000,1049.166626 1271.000000,1350.000000 
	C847.666809,1350.000000 424.333588,1350.000000 1.000292,1350.000000 
	C1.000194,900.333557 1.000194,450.667084 1.000097,1.000473 
	C424.333038,1.000315 847.666077,1.000315 1270.999512,1.000157 
	C1271.000000,149.500000 1271.000000,298.000000 1271.000000,447.000000 
M1079.500000,1276.000000 
	C1117.926025,1276.000000 1156.352051,1276.000000 1194.712402,1276.000000 
	C1194.712402,1180.693237 1194.712402,1085.955566 1194.712402,990.817749 
	C1164.019653,990.817749 1133.612549,990.817749 1103.292969,990.817749 
	C1103.292969,778.013611 1103.292969,565.610413 1103.292969,352.806763 
	C1134.324707,352.806763 1165.065186,352.806763 1195.699829,352.806763 
	C1195.699829,260.334564 1195.699829,168.263428 1195.699829,76.302200 
	C1019.662537,76.302200 843.925598,76.302200 668.305359,76.302200 
	C668.305359,168.675858 668.305359,260.747009 668.305359,353.218048 
	C694.683105,353.218048 720.757141,353.218048 746.686951,353.218048 
	C746.686951,412.024261 746.686951,470.429230 746.686951,528.683594 
	C670.302185,528.683594 594.230774,528.683594 518.320068,528.683594 
	C518.320068,471.628357 518.320068,414.890015 518.320068,358.298279 
	C544.657898,357.790588 570.673584,357.289093 596.758423,356.786285 
	C596.758423,263.118683 596.758423,169.714386 596.758423,76.243614 
	C423.113190,76.243614 249.709656,76.243614 76.246758,76.243614 
	C76.246758,169.891739 76.246758,263.296051 76.246758,357.100769 
	C104.898056,357.100769 133.305405,357.100769 161.747681,357.100769 
	C161.747681,568.904846 161.747681,780.308105 161.747681,992.111938 
	C133.424042,992.111938 105.349998,992.111938 77.259483,992.111938 
	C77.259483,1086.917236 77.259483,1181.321533 77.259483,1275.738525 
	C250.255997,1275.738525 422.992889,1275.738525 595.735352,1275.738525 
	C595.735352,1181.072388 595.735352,1086.668091 595.735352,991.863403 
	C569.732422,991.863403 543.991638,991.863403 518.272339,991.863403 
	C518.272339,932.390808 518.272339,873.319397 518.272339,814.275635 
	C594.616150,814.275635 670.687317,814.275635 746.720703,814.275635 
	C746.720703,873.289856 746.720703,932.027954 746.720703,991.165771 
	C720.702942,991.165771 694.962219,991.165771 669.286377,991.165771 
	C669.286377,1086.304565 669.286377,1181.042236 669.286377,1276.000000 
	C805.881775,1276.000000 942.190918,1276.000000 1079.500000,1276.000000 
z"/>
<path fill="#000000" opacity="1.000000" stroke="none" 
	d="
M1079.000000,1276.000000 
	C942.190918,1276.000000 805.881775,1276.000000 669.286377,1276.000000 
	C669.286377,1181.042236 669.286377,1086.304565 669.286377,991.165771 
	C694.962219,991.165771 720.702942,991.165771 746.720703,991.165771 
	C746.720703,932.027954 746.720703,873.289856 746.720703,814.275635 
	C670.687317,814.275635 594.616150,814.275635 518.272339,814.275635 
	C518.272339,873.319397 518.272339,932.390808 518.272339,991.863403 
	C543.991638,991.863403 569.732422,991.863403 595.735352,991.863403 
	C595.735352,1086.668091 595.735352,1181.072388 595.735352,1275.738525 
	C422.992889,1275.738525 250.255997,1275.738525 77.259483,1275.738525 
	C77.259483,1181.321533 77.259483,1086.917236 77.259483,992.111938 
	C105.349998,992.111938 133.424042,992.111938 161.747681,992.111938 
	C161.747681,780.308105 161.747681,568.904846 161.747681,357.100769 
	C133.305405,357.100769 104.898056,357.100769 76.246758,357.100769 
	C76.246758,263.296051 76.246758,169.891739 76.246758,76.243614 
	C249.709656,76.243614 423.113190,76.243614 596.758423,76.243614 
	C596.758423,169.714386 596.758423,263.118683 596.758423,356.786285 
	C570.673584,357.289093 544.657898,357.790588 518.320068,358.298279 
	C518.320068,414.890015 518.320068,471.628357 518.320068,528.683594 
	C594.230774,528.683594 670.302185,528.683594 746.686951,528.683594 
	C746.686951,470.429230 746.686951,412.024261 746.686951,353.218048 
	C720.757141,353.218048 694.683105,353.218048 668.305359,353.218048 
	C668.305359,260.747009 668.305359,168.675858 668.305359,76.302200 
	C843.925598,76.302200 1019.662537,76.302200 1195.699829,76.302200 
	C1195.699829,168.263428 1195.699829,260.334564 1195.699829,352.806763 
	C1165.065186,352.806763 1134.324707,352.806763 1103.292969,352.806763 
	C1103.292969,565.610413 1103.292969,778.013611 1103.292969,990.817749 
	C1133.612549,990.817749 1164.019653,990.817749 1194.712402,990.817749 
	C1194.712402,1085.955566 1194.712402,1180.693237 1194.712402,1276.000000 
	C1156.352051,1276.000000 1117.926025,1276.000000 1079.000000,1276.000000 
M494.500000,1246.000000 
	C518.259216,1246.000000 542.018433,1246.000000 565.712341,1246.000000 
	C565.712341,1170.694458 565.712341,1095.955811 565.712341,1020.817017 
	C539.685730,1020.817017 513.944580,1020.817017 488.296387,1020.817017 
	C488.296387,941.676941 488.296387,862.938354 488.296387,784.300720 
	C584.664978,784.300720 680.736877,784.300720 776.694946,784.300720 
	C776.694946,863.340393 776.694946,942.079041 776.694946,1021.217773 
	C750.650574,1021.217773 724.909424,1021.217773 699.313782,1021.217773 
	C699.313782,1096.357910 699.313782,1171.096558 699.313782,1245.681885 
	C854.699585,1245.681885 1009.771423,1245.681885 1164.677612,1245.681885 
	C1164.677612,1170.624756 1164.677612,1095.885986 1164.677612,1020.747559 
	C1133.949097,1020.747559 1103.541626,1020.747559 1073.331055,1020.747559 
	C1073.331055,787.941223 1073.331055,555.536194 1073.331055,322.730408 
	C1104.401611,322.730408 1135.142334,322.730408 1165.660278,322.730408 
	C1165.660278,249.923401 1165.660278,177.517868 1165.660278,105.344009 
	C1009.581848,105.344009 853.843262,105.344009 698.348389,105.344009 
	C698.348389,178.093903 698.348389,250.499496 698.348389,323.304352 
	C724.770203,323.304352 750.844604,323.304352 776.642944,323.304352 
	C776.642944,402.111359 776.642944,480.516937 776.642944,558.638550 
	C680.213440,558.638550 584.141235,558.638550 488.730957,558.638550 
	C488.730957,481.605225 488.730957,404.933685 488.730957,327.881104 
	C515.212952,327.881104 540.966614,327.881104 566.741272,327.881104 
	C566.741272,253.419098 566.741272,179.347290 566.741272,105.263008 
	C412.743988,105.263008 259.005585,105.263008 105.267349,105.263008 
	C105.267349,179.598175 105.267349,253.670013 105.267349,328.142334 
	C134.273209,328.142334 163.014099,328.142334 191.724060,328.142334 
	C191.724060,559.281921 191.724060,790.020264 191.724060,1021.159546 
	C163.376114,1021.159546 135.301834,1021.159546 107.284683,1021.159546 
	C107.284683,1096.299561 107.284683,1171.038208 107.284683,1246.000000 
	C236.212814,1246.000000 364.856415,1246.000000 494.500000,1246.000000 
z"/>
<path fill="#FFFFFF" opacity="1.000000" stroke="none" 
	d="
M494.000000,1246.000000 
	C364.856415,1246.000000 236.212814,1246.000000 107.284683,1246.000000 
	C107.284683,1171.038208 107.284683,1096.299561 107.284683,1021.159546 
	C135.301834,1021.159546 163.376114,1021.159546 191.724060,1021.159546 
	C191.724060,790.020264 191.724060,559.281921 191.724060,328.142334 
	C163.014099,328.142334 134.273209,328.142334 105.267349,328.142334 
	C105.267349,253.670013 105.267349,179.598175 105.267349,105.263008 
	C259.005585,105.263008 412.743988,105.263008 566.741272,105.263008 
	C566.741272,179.347290 566.741272,253.419098 566.741272,327.881104 
	C540.966614,327.881104 515.212952,327.881104 488.730957,327.881104 
	C488.730957,404.933685 488.730957,481.605225 488.730957,558.638550 
	C584.141235,558.638550 680.213440,558.638550 776.642944,558.638550 
	C776.642944,480.516937 776.642944,402.111359 776.642944,323.304352 
	C750.844604,323.304352 724.770203,323.304352 698.348389,323.304352 
	C698.348389,250.499496 698.348389,178.093903 698.348389,105.344009 
	C853.843262,105.344009 1009.581848,105.344009 1165.660278,105.344009 
	C1165.660278,177.517868 1165.660278,249.923401 1165.660278,322.730408 
	C1135.142334,322.730408 1104.401611,322.730408 1073.331055,322.730408 
	C1073.331055,555.536194 1073.331055,787.941223 1073.331055,1020.747559 
	C1103.541626,1020.747559 1133.949097,1020.747559 1164.677612,1020.747559 
	C1164.677612,1095.885986 1164.677612,1170.624756 1164.677612,1245.681885 
	C1009.771423,1245.681885 854.699585,1245.681885 699.313782,1245.681885 
	C699.313782,1171.096558 699.313782,1096.357910 699.313782,1021.217773 
	C724.909424,1021.217773 750.650574,1021.217773 776.694946,1021.217773 
	C776.694946,942.079041 776.694946,863.340393 776.694946,784.300720 
	C680.736877,784.300720 584.664978,784.300720 488.296387,784.300720 
	C488.296387,862.938354 488.296387,941.676941 488.296387,1020.817017 
	C513.944580,1020.817017 539.685730,1020.817017 565.712341,1020.817017 
	C565.712341,1095.955811 565.712341,1170.694458 565.712341,1246.000000 
	C542.018433,1246.000000 518.259216,1246.000000 494.000000,1246.000000 
M450.000000,941.500000 
	C450.000000,876.074280 450.000000,810.648560 450.000000,745.285339 
	C571.972107,745.285339 693.374878,745.285339 815.000000,745.285339 
	C815.000000,747.379944 815.000000,749.190979 815.000000,751.002075 
	C815.000000,840.832886 815.014771,930.663757 814.957458,1020.494568 
	C814.954590,1025.068115 815.002808,1029.819702 813.843994,1034.173340 
	C812.031311,1040.984009 809.512207,1047.459717 802.929688,1051.767578 
	C795.126465,1056.874512 786.512634,1058.564453 777.652771,1058.879761 
	C764.557678,1059.345459 751.433716,1059.000000 738.235962,1059.000000 
	C738.235962,1108.537231 738.235962,1157.608032 738.235962,1206.763428 
	C867.874695,1206.763428 997.277283,1206.763428 1126.760498,1206.763428 
	C1126.760498,1157.455566 1126.760498,1108.384766 1126.760498,1059.000000 
	C1124.725708,1059.000000 1122.926025,1059.028564 1121.127441,1058.995483 
	C1103.382935,1058.669434 1085.607910,1058.850464 1067.906372,1057.796265 
	C1058.090942,1057.211670 1049.843994,1052.285278 1043.939697,1043.865723 
	C1037.107056,1034.122314 1035.135132,1022.926758 1035.126587,1011.633545 
	C1034.956665,787.973267 1035.000000,564.312744 1035.000000,340.652313 
	C1035.000000,334.152496 1034.936035,327.651917 1035.015137,321.153046 
	C1035.131592,311.582245 1039.058228,303.321991 1045.760864,297.003967 
	C1054.382568,288.876953 1065.202759,285.068298 1077.146973,285.016418 
	C1092.646118,284.949127 1108.145996,285.006104 1123.645508,284.989746 
	C1125.069214,284.988251 1126.492676,284.843353 1127.656494,284.779327 
	C1127.656494,237.580521 1127.656494,190.842270 1127.656494,144.343979 
	C996.910156,144.343979 866.507385,144.343979 736.347046,144.343979 
	C736.347046,191.426743 736.347046,238.165070 736.347046,285.000000 
	C742.854431,285.000000 749.025024,284.777832 755.173950,285.048187 
	C766.499146,285.546204 778.075806,285.047241 789.066650,287.305115 
	C805.122009,290.603394 815.027161,300.869232 815.018921,319.106140 
	C814.977722,410.270264 815.000000,501.434387 815.000000,592.598511 
	C815.000000,594.353699 815.000000,596.108948 815.000000,597.675415 
	C692.949341,597.675415 571.546387,597.675415 450.000000,597.675415 
	C450.000000,595.529968 450.000000,593.708435 450.000000,591.886963 
	C450.000000,510.555908 449.971954,429.224792 450.043701,347.893799 
	C450.050812,339.814056 450.246857,331.689331 451.115601,323.667847 
	C452.023590,315.283264 454.559448,307.424652 460.522980,300.850281 
	C469.199768,291.284607 480.737213,289.702271 492.421173,289.131287 
	C504.497650,288.541107 516.625427,289.000000 528.738525,289.000000 
	C528.738525,240.411591 528.738525,192.340622 528.738525,144.262115 
	C400.407562,144.262115 272.338257,144.262115 144.265091,144.262115 
	C144.265091,192.595673 144.265091,240.666641 144.265091,290.000000 
	C161.416092,290.000000 178.315720,289.623779 195.187683,290.144196 
	C204.967361,290.445831 213.253326,294.831146 219.010971,303.150116 
	C228.022171,316.170013 229.787018,331.360962 229.809692,346.308380 
	C230.098541,536.635986 230.000000,726.964172 230.000000,917.292175 
	C230.000000,951.957886 230.084961,986.623962 229.940140,1021.289062 
	C229.904037,1029.931152 226.529312,1037.595459 221.152756,1044.314575 
	C211.829285,1055.966187 198.903976,1059.513062 184.800003,1059.945679 
	C175.475708,1060.231812 166.135513,1060.000000 156.802444,1060.000000 
	C152.887878,1060.000000 148.973312,1060.000000 145.361679,1060.000000 
	C145.361679,1109.456177 145.361679,1158.194580 145.361679,1206.637695 
	C272.793121,1206.637695 399.862762,1206.637695 526.634705,1206.637695 
	C526.634705,1157.536621 526.634705,1108.798218 526.634705,1060.000000 
	C518.437134,1060.000000 510.593628,1060.260254 502.775391,1059.927734 
	C494.773590,1059.587402 486.725922,1059.114868 478.828308,1057.873535 
	C470.853149,1056.620117 463.528229,1053.088745 458.404541,1046.690186 
	C452.373993,1039.159302 449.899292,1030.241821 449.952087,1020.497559 
	C450.092957,994.499023 450.000000,968.499268 450.000000,941.500000 
z"/>
<path fill="#000000" opacity="1.000000" stroke="none" 
	d="
M450.000000,942.000000 
	C450.000000,968.499268 450.092957,994.499023 449.952087,1020.497559 
	C449.899292,1030.241821 452.373993,1039.159302 458.404541,1046.690186 
	C463.528229,1053.088745 470.853149,1056.620117 478.828308,1057.873535 
	C486.725922,1059.114868 494.773590,1059.587402 502.775391,1059.927734 
	C510.593628,1060.260254 518.437134,1060.000000 526.634705,1060.000000 
	C526.634705,1108.798218 526.634705,1157.536621 526.634705,1206.637695 
	C399.862762,1206.637695 272.793121,1206.637695 145.361679,1206.637695 
	C145.361679,1158.194580 145.361679,1109.456177 145.361679,1060.000000 
	C148.973312,1060.000000 152.887878,1060.000000 156.802444,1060.000000 
	C166.135513,1060.000000 175.475708,1060.231812 184.800003,1059.945679 
	C198.903976,1059.513062 211.829285,1055.966187 221.152756,1044.314575 
	C226.529312,1037.595459 229.904037,1029.931152 229.940140,1021.289062 
	C230.084961,986.623962 230.000000,951.957886 230.000000,917.292175 
	C230.000000,726.964172 230.098541,536.635986 229.809692,346.308380 
	C229.787018,331.360962 228.022171,316.170013 219.010971,303.150116 
	C213.253326,294.831146 204.967361,290.445831 195.187683,290.144196 
	C178.315720,289.623779 161.416092,290.000000 144.265091,290.000000 
	C144.265091,240.666641 144.265091,192.595673 144.265091,144.262115 
	C272.338257,144.262115 400.407562,144.262115 528.738525,144.262115 
	C528.738525,192.340622 528.738525,240.411591 528.738525,289.000000 
	C516.625427,289.000000 504.497650,288.541107 492.421173,289.131287 
	C480.737213,289.702271 469.199768,291.284607 460.522980,300.850281 
	C454.559448,307.424652 452.023590,315.283264 451.115601,323.667847 
	C450.246857,331.689331 450.050812,339.814056 450.043701,347.893799 
	C449.971954,429.224792 450.000000,510.555908 450.000000,591.886963 
	C450.000000,593.708435 450.000000,595.529968 450.000000,597.675415 
	C571.546387,597.675415 692.949341,597.675415 815.000000,597.675415 
	C815.000000,596.108948 815.000000,594.353699 815.000000,592.598511 
	C815.000000,501.434387 814.977722,410.270264 815.018921,319.106140 
	C815.027161,300.869232 805.122009,290.603394 789.066650,287.305115 
	C778.075806,285.047241 766.499146,285.546204 755.173950,285.048187 
	C749.025024,284.777832 742.854431,285.000000 736.347046,285.000000 
	C736.347046,238.165070 736.347046,191.426743 736.347046,144.343979 
	C866.507385,144.343979 996.910156,144.343979 1127.656494,144.343979 
	C1127.656494,190.842270 1127.656494,237.580521 1127.656494,284.779327 
	C1126.492676,284.843353 1125.069214,284.988251 1123.645508,284.989746 
	C1108.145996,285.006104 1092.646118,284.949127 1077.146973,285.016418 
	C1065.202759,285.068298 1054.382568,288.876953 1045.760864,297.003967 
	C1039.058228,303.321991 1035.131592,311.582245 1035.015137,321.153046 
	C1034.936035,327.651917 1035.000000,334.152496 1035.000000,340.652313 
	C1035.000000,564.312744 1034.956665,787.973267 1035.126587,1011.633545 
	C1035.135132,1022.926758 1037.107056,1034.122314 1043.939697,1043.865723 
	C1049.843994,1052.285278 1058.090942,1057.211670 1067.906372,1057.796265 
	C1085.607910,1058.850464 1103.382935,1058.669434 1121.127441,1058.995483 
	C1122.926025,1059.028564 1124.725708,1059.000000 1126.760498,1059.000000 
	C1126.760498,1108.384766 1126.760498,1157.455566 1126.760498,1206.763428 
	C997.277283,1206.763428 867.874695,1206.763428 738.235962,1206.763428 
	C738.235962,1157.608032 738.235962,1108.537231 738.235962,1059.000000 
	C751.433716,1059.000000 764.557678,1059.345459 777.652771,1058.879761 
	C786.512634,1058.564453 795.126465,1056.874512 802.929688,1051.767578 
	C809.512207,1047.459717 812.031311,1040.984009 813.843994,1034.173340 
	C815.002808,1029.819702 814.954590,1025.068115 814.957458,1020.494568 
	C815.014771,930.663757 815.000000,840.832886 815.000000,751.002075 
	C815.000000,749.190979 815.000000,747.379944 815.000000,745.285339 
	C693.374878,745.285339 571.972107,745.285339 450.000000,745.285339 
	C450.000000,810.648560 450.000000,876.074280 450.000000,942.000000 
z"/>
</svg>